<svg width="60" height="60" viewBox="0 0 60 60" fill="none" xmlns="http://www.w3.org/2000/svg">
<path fill-rule="evenodd" clip-rule="evenodd" d="M13.3329 54.9441C18.2664 58.2406 24.0666 60 30 60C37.9537 59.9913 45.5793 56.8276 51.2035 51.2034C56.8277 45.5793 59.9913 37.9537 60 30C60 24.0665 58.2406 18.2663 54.9442 13.3328C51.6477 8.39937 46.9624 4.55418 41.4804 2.28357C35.9987 0.0129377 29.9668 -0.581162 24.1473 0.576393C18.3279 1.73395 12.9824 4.59118 8.78681 8.78674C4.59123 12.9823 1.73401 18.3278 0.576454 24.1472C-0.581102 29.9668 0.0129995 35.9987 2.28363 41.4804C4.55426 46.9623 8.39944 51.6477 13.3329 54.9441ZM15.106 7.70949C19.5146 4.76372 24.6978 3.19144 30 3.19144C37.1076 3.19956 43.9218 6.02661 48.9475 11.0524C52.1438 14.2488 54.4509 18.1686 55.7091 22.4272H55.5286L53.1651 19.5727L50.3898 17.8263L48.697 15.7838L47.1549 16.2995L45.3881 13.9097L43.2562 12.217L41.1243 9.23995L38.1396 12.9523L35.8596 10.5217L33.3523 9.46463L30.7226 6.25527L30.1506 5.86463L28.1694 3.82208L24.9345 7.76932L23.0579 9.73783L21.4009 11.1038L18.9779 13.5038L16.6545 16.2153L14.7651 15.2604L11.4153 11.3642L9.02556 15.6383L7.00343 18.3217L5.17974 22.4272H4.28329C4.55086 21.5185 4.8673 20.6217 5.23218 19.7408C7.26125 14.8422 10.6974 10.6552 15.106 7.70949ZM29.4 6.29868L28.1234 4.67995L29.8519 8.09612L29.6809 8.73187C29.6451 8.86711 29.6546 9.01032 29.7074 9.13977C29.7605 9.26924 29.8542 9.3779 29.9745 9.44932L31.7617 10.5242C31.7617 10.5242 31.177 11.1446 31.2843 11.3617C31.7438 12.2783 35.354 11.8289 35.354 11.8289L35.0655 12.1327C34.9861 12.2162 34.9305 12.3196 34.9047 12.432C34.8786 12.5443 34.8835 12.6615 34.9185 12.7714C34.9534 12.8813 35.0173 12.9797 35.1033 13.0565C35.1894 13.1332 35.2946 13.1854 35.4077 13.2076L37.9404 13.7183L35.6962 11.1063L32.1677 9.57442L29.4 6.29868ZM5.22641 27.314L4.80003 25.9991L4.37364 27.314H2.98981L4.10811 28.1259L3.68173 29.4408L4.80003 28.6289L5.91832 29.4408L5.49194 28.1259L6.61024 27.314H5.22641ZM23.1421 31.9736H21.8655L21.8808 33.4212C21.5815 33.5844 21.2488 33.6771 20.9081 33.6919C20.6214 33.6952 20.3392 33.6211 20.0911 33.4774C19.847 33.3344 19.6473 33.1269 19.5141 32.8774C19.372 32.616 19.2999 32.3221 19.3047 32.0246C19.2999 31.7303 19.3721 31.44 19.5141 31.1821C19.6484 30.9344 19.8478 30.7281 20.0908 30.5857C20.3337 30.4429 20.611 30.3694 20.8928 30.3727C21.162 30.375 21.4278 30.4325 21.674 30.5412C21.9341 30.6492 22.1721 30.8042 22.3762 30.9983L23.2111 29.977C22.9003 29.7063 22.5407 29.4975 22.1515 29.3617C21.751 29.2133 21.3275 29.1365 20.9004 29.1344C20.3498 29.1263 19.8058 29.2552 19.3174 29.5097C18.8579 29.7482 18.4721 30.1074 18.2017 30.5489C17.9298 30.9944 17.7891 31.5079 17.7957 32.0297C17.7894 32.5531 17.9253 33.0686 18.189 33.5208C18.4471 33.9615 18.8205 34.3233 19.2689 34.5676C19.7381 34.8247 20.2659 34.956 20.8009 34.948C21.2216 34.9437 21.6393 34.8748 22.0392 34.7438C22.4339 34.6284 22.8067 34.4481 23.1421 34.2102V31.9736ZM28.6289 29.5097C29.0844 29.7508 29.4646 30.1128 29.7273 30.556C29.99 30.9995 30.1251 31.5068 30.1174 32.0221C30.1274 32.5432 29.9939 33.0571 29.7311 33.5075C29.4687 33.9577 29.0872 34.3271 28.6289 34.5753C28.1505 34.826 27.6181 34.957 27.0779 34.957C26.5376 34.957 26.0053 34.826 25.5268 34.5753C25.0738 34.3314 24.6959 33.9686 24.434 33.5259C24.1691 33.0722 24.0323 32.5552 24.0383 32.0297C24.0308 31.5145 24.1658 31.0072 24.4285 30.5637C24.6911 30.1205 25.0713 29.7584 25.5268 29.5174C26.0066 29.2708 26.5384 29.1421 27.0779 29.1421C27.6174 29.1421 28.1492 29.2708 28.6289 29.5174V29.5097ZM26.3311 30.5948C26.0911 30.7386 25.8952 30.9451 25.7643 31.1923C25.6246 31.4491 25.5526 31.7374 25.5549 32.0297C25.5513 32.3254 25.6251 32.6167 25.7694 32.8748C25.9024 33.121 26.0967 33.3285 26.3336 33.4774C26.5626 33.6224 26.8284 33.6985 27.0996 33.697C27.3707 33.6998 27.637 33.6234 27.8655 33.4774C28.0991 33.3293 28.2889 33.1212 28.4145 32.8748C28.547 32.6142 28.6162 32.3259 28.6162 32.0336C28.6162 31.7412 28.547 31.453 28.4145 31.1923C28.2901 30.9464 28.1002 30.7396 27.8655 30.5948C27.6363 30.4506 27.3705 30.3753 27.0996 30.3778C26.8246 30.375 26.5547 30.4503 26.3209 30.5948H26.3311ZM35.28 29.5097C35.7301 29.751 36.1067 30.109 36.3702 30.5463C36.638 30.9916 36.7759 31.5028 36.7685 32.0221C36.7769 32.5429 36.6429 33.0564 36.3804 33.5063C36.118 33.9564 35.7375 34.3261 35.28 34.5753C34.801 34.826 34.2684 34.957 33.7277 34.957C33.1869 34.957 32.6543 34.826 32.1753 34.5753C31.7237 34.3307 31.3468 33.9681 31.0851 33.5259C30.818 33.073 30.6804 32.5554 30.6868 32.0297C30.6794 31.5104 30.8173 30.9993 31.0851 30.554C31.3486 30.1166 31.7254 29.7587 32.1753 29.5174C32.6556 29.2708 33.1877 29.1421 33.7277 29.1421C34.2677 29.1421 34.7997 29.2708 35.28 29.5174V29.5097ZM32.9821 30.5948C32.7431 30.7388 32.5481 30.9454 32.4179 31.1923C32.2772 31.4486 32.2049 31.7371 32.2085 32.0297C32.2052 32.3249 32.2782 32.616 32.4204 32.8748C32.5552 33.1205 32.7503 33.328 32.9872 33.4774C33.2163 33.6227 33.482 33.699 33.7532 33.697C34.0243 33.6998 34.2906 33.6234 34.5191 33.4774C34.7528 33.3293 34.9425 33.1212 35.0681 32.8748C35.2006 32.6142 35.2698 32.3259 35.2698 32.0336C35.2698 31.7412 35.2006 31.453 35.0681 31.1923C34.9437 30.9464 34.7538 30.7396 34.5191 30.5948C34.2899 30.4506 34.0241 30.3753 33.7532 30.3778C33.4767 30.374 33.2048 30.4493 32.9694 30.5948H32.9821ZM41.7779 29.5736C42.2163 29.7983 42.5819 30.1427 42.8323 30.5668C43.0803 31.0154 43.2102 31.5196 43.2102 32.0323C43.2102 32.545 43.0803 33.0492 42.8323 33.4978C42.5775 33.9257 42.2043 34.2707 41.7574 34.491C41.2647 34.7366 40.7198 34.86 40.1694 34.851H37.7949V29.234H40.2179C40.7576 29.2192 41.293 29.3359 41.7779 29.5736ZM41.0119 33.457C41.232 33.3186 41.4089 33.1215 41.5226 32.8876C41.6477 32.6239 41.7089 32.3343 41.7013 32.0425C41.7069 31.7471 41.6395 31.455 41.5047 31.1923C41.3814 30.9546 41.194 30.7565 40.9634 30.6204C40.7252 30.4805 40.4533 30.409 40.177 30.4136H39.2553V33.6561H40.2485C40.5166 33.6625 40.7811 33.5933 41.0119 33.457ZM20.28 37.4476C20.7197 37.6692 21.0859 38.0134 21.3345 38.4383C21.583 38.8866 21.7135 39.3911 21.7135 39.9038C21.7135 40.4165 21.583 40.921 21.3345 41.3693C21.0781 41.7975 20.7041 42.1432 20.257 42.3651C19.7624 42.6074 19.2171 42.7281 18.6664 42.7174H16.297V37.1004H18.7226C19.2622 37.0879 19.7968 37.2068 20.28 37.4476ZM19.5141 41.3285C19.7359 41.1921 19.9133 40.9943 20.0247 40.7591C20.1512 40.4966 20.2142 40.2079 20.2085 39.9165C20.215 39.6211 20.1474 39.3288 20.0119 39.0663C19.8887 38.8286 19.7011 38.6305 19.4706 38.4944C19.2323 38.3553 18.9602 38.2845 18.6843 38.2902H17.7626V41.5302H18.7583C19.0242 41.5358 19.2863 41.4658 19.5141 41.3285ZM22.7387 37.0927H27.1736V38.2646H24.2068V39.3166H26.8928V40.468H24.2145V41.5276H27.263V42.6995H22.7387V37.0927ZM28.4502 37.0927H32.8851V38.2646H29.9183V39.3166H32.5966V40.468H29.9183V41.5276H32.9643V42.6995H28.4502V37.0927ZM38.1421 37.4476C38.5818 37.6692 38.9479 38.0134 39.1966 38.4383C39.454 38.8823 39.5844 39.3883 39.5745 39.9012C39.5834 40.416 39.4519 40.9235 39.194 41.3693C38.938 41.797 38.5649 42.1424 38.1191 42.3651C37.6236 42.6074 37.0774 42.7284 36.526 42.7174H34.1591V37.1004H36.5949C37.1313 37.0886 37.6624 37.2079 38.1421 37.4476ZM37.3762 41.3285C37.598 41.1921 37.7755 40.9943 37.8868 40.7591C38.0142 40.4966 38.078 40.2081 38.0732 39.9165C38.0788 39.6209 38.0104 39.3288 37.874 39.0663C37.7517 38.8289 37.5651 38.6305 37.3353 38.4944C37.0969 38.3555 36.8249 38.2851 36.5489 38.2902H35.6247V41.5302H36.6204C36.8865 41.5358 37.1484 41.4658 37.3762 41.3285ZM43.5166 38.354C43.2429 38.2539 42.9552 38.197 42.6638 38.1855C42.5142 38.1771 42.3654 38.2115 42.2349 38.2851C42.1846 38.3152 42.1432 38.3586 42.1154 38.4102C42.0876 38.4617 42.0743 38.52 42.0766 38.5787C42.0756 38.6371 42.0876 38.6951 42.1113 38.7485C42.1351 38.8018 42.1703 38.8493 42.2145 38.8876C42.313 38.9752 42.4274 39.0428 42.5515 39.0868C42.6843 39.1378 42.8809 39.2042 43.1438 39.2834C43.4734 39.3743 43.7967 39.4868 44.1115 39.6204C44.3678 39.7348 44.5923 39.9102 44.7651 40.131C44.9556 40.3948 45.0511 40.7152 45.0357 41.04C45.0465 41.3839 44.942 41.7217 44.7396 42C44.53 42.2721 44.2476 42.4792 43.9251 42.5974C43.5569 42.7345 43.1666 42.8019 42.7736 42.7966C42.2995 42.7917 41.8297 42.7054 41.3847 42.5412C40.9468 42.3942 40.5401 42.1672 40.1847 41.8723L40.754 40.7259C41.0528 40.9861 41.3928 41.1949 41.76 41.3438C42.082 41.4888 42.4287 41.5703 42.7813 41.5838C42.9592 41.5922 43.1362 41.5506 43.2919 41.4638C43.3522 41.4275 43.4017 41.3757 43.4349 41.3137C43.4681 41.2516 43.4839 41.1817 43.4809 41.1114C43.4826 41.0507 43.4709 40.9904 43.4466 40.9348C43.4224 40.8791 43.3861 40.8296 43.3404 40.7897C43.2378 40.6986 43.118 40.6291 42.9881 40.5855C42.8477 40.5344 42.6485 40.4731 42.3906 40.4042C42.0654 40.3179 41.7465 40.2094 41.4357 40.08C41.1817 39.9653 40.9598 39.7899 40.7898 39.5693C40.6006 39.314 40.5059 39.0007 40.5217 38.6834C40.5151 38.3573 40.6116 38.0374 40.7974 37.7693C40.9961 37.4961 41.269 37.2863 41.5838 37.1642C41.9604 37.0143 42.3633 36.9416 42.7685 36.9497C43.1862 36.9559 43.6009 37.023 43.9991 37.1489C44.3671 37.251 44.7181 37.4068 45.0409 37.611L44.4868 38.7804C44.1797 38.6037 43.8544 38.4607 43.5166 38.354ZM13.6443 43.2408L16.7515 46.3404L15.9702 47.1217L14.8928 46.0417L12.046 48.8936L11.1013 47.9489L13.9405 45.1072L12.8656 44.0323L13.6443 43.2408ZM18.9064 53.5863L18.8936 51.9855L18.8681 51.9727L18.0102 51.531L17.3592 52.7897L16.1694 52.1795L18.5158 47.617L20.5583 48.6714C21.0766 48.8971 21.497 49.3011 21.743 49.8102C21.8353 50.042 21.8733 50.2917 21.8543 50.5404C21.8353 50.7891 21.7596 51.0301 21.6332 51.2451C21.4826 51.5576 21.254 51.8257 20.9694 52.0238C20.7017 52.202 20.387 52.2962 20.0655 52.2944L20.2494 54.2706L18.9064 53.5863ZM18.4979 50.5812L19.3609 51.0255C19.558 51.1432 19.7923 51.1825 20.017 51.1353C20.1213 51.1018 20.2171 51.0467 20.2982 50.9729C20.3792 50.8994 20.4435 50.8095 20.4868 50.7089C20.5411 50.618 20.5749 50.5161 20.5859 50.4109C20.597 50.3055 20.5849 50.199 20.5507 50.0987C20.4586 49.8893 20.2908 49.7223 20.0809 49.6314L19.2179 49.1846L18.4979 50.5812ZM27.8247 55.9863L27.6026 55.0417L25.4094 54.7404L24.9319 55.588L23.5711 55.4017L26.446 50.6272L27.8068 50.8136L29.2366 56.1753L27.8247 55.9863ZM25.9455 53.7804L27.3498 53.9744L26.9055 52.0697L25.9455 53.7804ZM31.1132 51.0561L32.5277 50.8008L34.4477 54.217L35.063 50.3387L36.4136 50.0834L35.3617 55.4808L33.9957 55.7361L31.1132 51.0561ZM38.354 49.274L41.8902 47.3208L42.4009 48.2527L40.0366 49.56L40.4987 50.3974L42.6332 49.2178L43.1438 50.1446L41.0119 51.3319L41.4766 52.177L43.9072 50.834L44.4179 51.7685L40.8306 53.7446L38.354 49.274ZM43.874 45.7097L44.8085 44.7523L47.6604 47.5327L49.1745 45.9778L49.9915 46.7719L47.543 49.2842L43.874 45.7097ZM6.19917 33.337L5.77279 32.0221L5.34386 33.337H3.96258L5.08088 34.1489L4.65449 35.4638L5.77279 34.6519L6.89109 35.4638L6.46215 34.1489L7.58045 33.337H6.19917ZM8.49705 38.5787L8.07066 37.2638L7.64428 38.5787H6.26045L7.3813 39.3906L6.95237 40.7055L8.07066 39.8936L9.18896 40.7055L8.76258 39.3906L9.88088 38.5787H8.49705ZM53.7191 27.314L54.1455 25.9991L54.5745 27.314H55.9557L54.8374 28.1259L55.2638 29.4408L54.1455 28.6289L53.0272 29.4408L53.4562 28.1259L52.3379 27.314H53.7191ZM52.7464 33.337L53.1728 32.0221L53.6017 33.337H54.983L53.8647 34.1489L54.2911 35.4638L53.1728 34.6519L52.0545 35.4638L52.4834 34.1489L51.3651 33.337H52.7464ZM50.4485 38.5787L50.8749 37.2638L51.3013 38.5787H52.6851L51.5668 39.3906L51.9932 40.7055L50.8749 39.8936L49.7566 40.7055L50.183 39.3906L49.0647 38.5787H50.4485ZM42.5719 12.4748L41.1268 9.94974L41.0655 11.3004C41.0528 11.6901 41.1516 12.0753 41.3507 12.4105C41.5499 12.7458 41.8407 13.017 42.1889 13.1923L42.5387 13.3659C42.5387 13.3659 41.28 14.1523 41.4357 14.52C41.7421 15.2553 44.6298 14.5685 44.6298 14.5685C44.6298 14.5685 43.5702 15.0306 43.6417 15.3344C43.7464 15.7863 45.4545 15.7021 45.4545 15.7021L43.8613 16.9046L46.606 16.44L45.074 14.1421L42.5719 12.4748ZM48.5949 16.2638L50.0834 18.12L52.8613 19.9583C52.8613 19.9583 50.7089 20.7753 50.543 20.2136C50.4613 19.9378 51.5643 19.7029 51.5643 19.7029L50.3872 19.4629C50.3872 19.4629 48.8553 19.9506 48.7149 19.5548C48.6026 19.2459 49.7796 18.7889 49.7796 18.7889L49.4681 18.2476L48.7149 18.0357L48.5949 16.2638ZM13.4885 14.8289L11.4307 12.217L12.1175 14.0195C12.1175 14.0195 11.4205 14.2212 11.4205 14.4229C11.4128 14.9719 13.2945 15.5642 13.2945 15.5642L14.5456 16.6672C14.5456 16.6672 14.0655 17.2034 14.1779 17.3668C14.566 17.9387 16.9353 17.0731 16.9353 17.0731L13.4885 14.8289ZM17.7064 16.32H17.7345C17.7913 16.2975 17.8493 16.2779 17.9081 16.2612C17.9344 16.2575 17.961 16.2575 17.9873 16.2612C17.9983 16.2647 18.015 16.2704 18.0339 16.2769C18.0849 16.2943 18.1525 16.3174 18.1711 16.3174C18.2392 16.3246 18.2859 16.2563 18.3129 16.2167L18.313 16.2167C18.3245 16.1999 18.3325 16.1882 18.337 16.1897L18.3414 16.1911C18.3692 16.1996 18.4895 16.2366 18.5158 16.3251C18.5177 16.3317 18.5197 16.3384 18.5215 16.3448C18.5457 16.4282 18.5612 16.4812 18.6536 16.4527C18.711 16.4367 18.7636 16.4069 18.8068 16.3659C18.8426 16.3429 19.7183 15.8323 19.7668 15.8323C19.9218 15.8335 20.0764 15.848 20.2289 15.8757C20.2676 15.8828 20.3137 15.8883 20.361 15.894C20.4323 15.9025 20.5066 15.9114 20.5634 15.9268L20.7728 15.988C20.9381 15.84 21.0801 15.6679 21.194 15.4774L21.2528 15.3931C21.2823 15.3509 21.3088 15.3065 21.3319 15.2604C21.3332 15.2565 21.3355 15.2516 21.3382 15.2459C21.3461 15.2291 21.3575 15.2047 21.3575 15.1761L21.3855 15.0689C21.3867 15.064 21.3879 15.0592 21.3892 15.0543C21.3916 15.0447 21.3943 15.0351 21.3969 15.0254C21.4078 14.9855 21.4187 14.9454 21.4187 14.908C21.4252 14.8743 21.4294 14.8402 21.4315 14.8059C21.4365 14.7692 21.4303 14.7318 21.4136 14.6987C21.4024 14.6835 21.3946 14.6661 21.3907 14.6476C21.3907 14.636 21.3913 14.626 21.3919 14.6164V14.6164V14.6164C21.393 14.5986 21.394 14.5824 21.3907 14.5608C21.3855 14.5276 21.3702 14.5276 21.309 14.5276C21.2324 14.542 21.1355 14.5712 21.0634 14.5928L21.0632 14.5929H21.0632L21.0631 14.5929C21.0078 14.6095 20.9672 14.6217 20.9617 14.6195C20.9609 14.6192 20.9601 14.619 20.9592 14.619L20.9584 14.6189H20.957C20.9553 14.619 20.9535 14.6192 20.9517 14.6195C20.9377 14.6213 20.9233 14.6232 20.9617 14.5404L20.9656 14.5328L20.9701 14.5242C20.9768 14.5112 20.9845 14.4965 20.9898 14.4842C20.9967 14.4682 21.0056 14.4521 21.0166 14.4323L21.0205 14.4255L21.143 14.1931L21.1864 14.1012C21.2067 14.0551 21.2229 14.0072 21.2349 13.9583V13.8893C21.2362 13.8715 21.2362 13.8535 21.2349 13.8357C21.2335 13.8277 21.2312 13.8194 21.2287 13.8101L21.2287 13.8101C21.2223 13.7867 21.2145 13.7578 21.2145 13.7157V13.6059C21.2096 13.5656 21.2167 13.5248 21.2349 13.4885C21.2458 13.4612 21.2535 13.4377 21.2596 13.4187V13.4186C21.2679 13.3931 21.2735 13.3758 21.2809 13.3685C21.2883 13.3611 21.2888 13.3528 21.2894 13.3432C21.2899 13.3362 21.2904 13.3286 21.2936 13.32L21.2949 13.3166V13.3165C21.3019 13.298 21.307 13.2844 21.3166 13.2459C21.3268 13.2051 21.3447 13.1463 21.3651 13.08L21.3855 13.0136C21.4085 12.9421 21.4315 12.868 21.4494 12.8042L21.4698 12.7327C21.4802 12.7 21.4887 12.6668 21.4953 12.6331C21.4953 12.6209 21.472 12.5756 21.4444 12.522C21.4088 12.4528 21.3661 12.3699 21.3575 12.3268C21.3538 12.3087 21.3548 12.2776 21.3558 12.2441C21.359 12.1355 21.3629 12.0028 21.2145 12.2195C21.0732 12.4259 20.9441 12.5903 20.8518 12.7078L20.8518 12.7078C20.8173 12.7517 20.788 12.789 20.7651 12.8195C20.7551 12.8328 20.7454 12.8461 20.7357 12.8591C20.664 12.9563 20.5998 13.0433 20.5098 13.0748C20.4227 13.1194 20.3322 13.1569 20.2392 13.1872C20.1808 13.1974 20.1262 13.2232 20.0813 13.2619C20.0364 13.3005 20.0027 13.3506 19.9839 13.4068C19.9719 13.5744 19.9393 13.7399 19.8868 13.8995C19.7954 14.1153 19.6666 14.3132 19.5064 14.4842C19.3632 14.6435 19.1992 14.7826 19.0187 14.8978C18.8643 14.9744 18.7142 15.0596 18.5694 15.1531C18.5174 15.1669 18.4645 15.1771 18.4111 15.1838L18.2426 15.2068L18.1047 15.2246C18.0598 15.4433 17.9462 15.6419 17.7805 15.7914C17.6482 15.876 17.5204 15.9672 17.3975 16.0646C17.4026 16.0646 17.7064 16.32 17.7064 16.32ZM25.1413 9.54378C25.2153 9.52081 25.2919 9.52081 25.343 9.52081L25.4068 9.49783H25.4222L25.537 9.40846L25.5906 9.36251L25.6979 9.26804L25.7413 9.22464C25.762 9.2051 25.7806 9.18373 25.7974 9.16081C25.8082 9.14104 25.8176 9.12057 25.8255 9.09953L25.846 9.05357L25.9098 8.89272C25.9116 8.88692 25.9111 8.88409 25.9106 8.88141C25.9095 8.87584 25.9088 8.87099 25.9277 8.84166C25.9557 8.79825 25.9557 8.76761 25.9557 8.76761V8.44081C26.0295 8.44201 26.1028 8.4272 26.1702 8.3974C26.1996 8.38397 26.2167 8.3577 26.2391 8.32275C26.2639 8.28463 26.2953 8.23622 26.3566 8.18293C26.4687 8.08854 26.5563 7.96857 26.6119 7.83315C26.6906 7.69254 26.7748 7.7061 26.8688 7.72124C26.9027 7.7267 26.938 7.73237 26.9745 7.73102C27.0447 7.72841 27.0633 7.74368 27.0909 7.76638C27.1174 7.78826 27.1524 7.81703 27.2502 7.84336C27.394 7.88201 27.386 7.84103 27.3725 7.76919C27.3671 7.74141 27.361 7.70903 27.3626 7.67485C27.3654 7.60943 27.3207 7.55932 27.2704 7.50271C27.2265 7.45326 27.1782 7.39887 27.1532 7.32506C27.1169 7.21762 27.2474 7.18663 27.3352 7.16582C27.3766 7.15599 27.4085 7.14843 27.4085 7.13612C27.4011 7.03428 27.409 6.93189 27.4315 6.83229C27.4463 6.75103 27.4517 6.72618 27.4649 6.66475C27.4746 6.62002 27.4884 6.55594 27.5132 6.43655C27.5543 6.23809 27.5755 6.22619 27.5985 6.2132C27.6082 6.20766 27.6184 6.20189 27.6306 6.18123C27.6452 6.15649 27.6791 6.11727 27.7157 6.07469C27.781 5.9986 27.8558 5.91177 27.8477 5.8774C27.8431 5.85792 27.8387 5.82728 27.8344 5.79644C27.8267 5.74244 27.8191 5.68778 27.8094 5.69102C27.794 5.69612 27.217 6.0791 27.194 6.10719C27.1836 6.12003 27.1271 6.20423 27.0679 6.29293L27.0677 6.29316L27.0674 6.29362V6.2937C26.9969 6.39892 26.9226 6.51016 26.9157 6.5157C26.903 6.52591 26.4536 7.08506 26.4536 7.08506L25.8 7.45527C25.69 7.43015 25.5886 7.61556 25.5334 7.71611V7.71618C25.5159 7.74848 25.503 7.772 25.4962 7.77698C25.4856 7.78469 25.4564 7.81821 25.4173 7.86327V7.8633C25.3526 7.93765 25.2607 8.04343 25.1796 8.11655C25.0596 8.25705 24.9567 8.41132 24.8732 8.57613C24.716 8.88361 24.5745 9.19893 24.4494 9.52081L24.3677 9.95485V10.0008L24.4111 9.98038C24.4605 9.9574 24.5083 9.93095 24.5541 9.90123L24.5847 9.88336L24.7405 9.77612L24.7736 9.75059L24.8885 9.65868C24.8947 9.65454 24.9001 9.64875 24.9051 9.64331C24.9125 9.63529 24.9192 9.62804 24.9268 9.62804L24.9677 9.58719C24.9989 9.56505 25.0347 9.55022 25.0724 9.54378H25.1413ZM23.2519 17.1145C23.0791 17.0941 22.9762 17.0783 22.9762 17.0783L23.3183 16.8689H29.5098L34.7719 18.2017C34.7188 18.2004 34.6667 18.1987 34.6157 18.1965L36.0957 20.0174C36.1677 20.0459 36.2622 20.1989 36.3227 20.3092L39.1481 20.6374C39.2944 20.6531 39.4297 20.7222 39.5283 20.8315C39.6266 20.9408 39.6812 21.0826 39.6817 21.2297V22.9787H40.0596C40.0976 22.9787 40.1339 22.9937 40.1607 23.0205C40.1875 23.0474 40.2026 23.0837 40.2026 23.1217V23.5531C40.2026 23.5911 40.1875 23.6274 40.1607 23.6543C40.1339 23.6811 40.0976 23.6961 40.0596 23.6961H39.4864C39.4808 22.7328 38.6982 21.9536 37.7336 21.9536C36.8426 21.9536 36.107 22.6184 35.9954 23.4791H29.0701C28.9588 22.6184 28.223 21.9536 27.3319 21.9536C26.4409 21.9536 25.7053 22.6184 25.5937 23.4791H25.3022L23.1422 23.2059C23.078 23.1983 23.0167 23.1749 22.9637 23.138C22.9107 23.101 22.8676 23.0516 22.8383 22.994C22.8189 22.9542 22.8085 22.9106 22.8077 22.8663V22.0927H22.5779V21.5361H22.8077V21.3574H22.5779V20.9897H22.8077V20.6655C22.8077 20.57 22.8456 20.4784 22.9131 20.4109C22.9806 20.3434 23.0722 20.3055 23.1677 20.3055H23.2519V17.1145ZM23.4051 20.3055H25.8V17.1098C24.9933 17.2612 23.972 17.1912 23.4051 17.1315V20.3055ZM25.9532 20.3055H29.2448L29.1906 20.1931C29.1677 20.1457 29.1551 20.0939 29.1539 20.0412C29.1529 19.9885 29.1631 19.9361 29.1837 19.8877C29.2047 19.8392 29.2356 19.7958 29.2746 19.7605C29.3137 19.725 29.3599 19.6985 29.4102 19.6825L29.4791 19.6621C29.4901 19.6586 29.5011 19.6557 29.5123 19.6533V17.1057C28.0481 17.3501 26.0119 17.0783 26.0119 17.0783H25.9532V20.3055ZM30.1323 20.3055H32.1018L32.0477 20.1931C32.0252 20.1455 32.0132 20.0935 32.0124 20.0408C32.0114 19.9881 32.0219 19.9358 32.0431 19.8875C32.064 19.8391 32.0951 19.7958 32.1342 19.7605C32.1733 19.7251 32.2195 19.6985 32.2698 19.6825L32.3362 19.6621C32.3752 19.6495 32.4158 19.6437 32.4562 19.6446V17.6957C31.5781 17.728 29.7434 17.1056 29.6655 17.0791V19.653C29.6903 19.6583 29.7148 19.6661 29.7383 19.6766C29.8203 19.7127 29.8859 19.7775 29.9234 19.8587L30.1323 20.3055ZM32.9893 20.3055H35.7151C35.71 20.2603 35.7064 20.2175 35.7064 20.1855C35.7071 20.1287 35.7225 20.0735 35.7503 20.0249L34.3815 18.1828C33.3659 18.1068 32.8021 17.8446 32.6094 17.7374V19.6821C32.6849 19.7194 32.7454 19.7817 32.7804 19.8587L32.9893 20.3055ZM35.8034 23.7063H29.2213V23.9514H35.8034V23.7063ZM23.3183 25.3761L25.8715 25.3404L28.4783 25.3225H34.4579L37.0647 25.3404L39.6179 25.3761L37.0647 25.4119L34.4579 25.4323H28.4783L23.3183 25.3761ZM25.74 23.7063C25.74 22.8271 26.4529 22.1144 27.3319 22.1144C28.2112 22.1144 28.9238 22.8271 28.9238 23.7063C28.9238 24.5855 28.2112 25.2983 27.3319 25.2983C26.4529 25.2983 25.74 24.5855 25.74 23.7063ZM37.7336 22.1144C36.8546 22.1144 36.1417 22.8271 36.1417 23.7063C36.1417 24.5855 36.8546 25.2983 37.7336 25.2983C38.6129 25.2983 39.3255 24.5855 39.3255 23.7063C39.3255 22.8271 38.6129 22.1144 37.7336 22.1144Z" fill="white"/>
</svg>
