<svg width="20" height="20" viewBox="0 0 20 20" fill="none" xmlns="http://www.w3.org/2000/svg">
<path d="M13.3041 15.0423C13.6294 15.0136 14.0625 14.8231 14.4206 14.5915C14.7744 14.3627 15.1781 14.0154 15.329 13.592L15.3291 13.5919C15.4441 13.2686 15.5031 12.9649 15.5238 12.7202C15.5341 12.5984 15.5354 12.4846 15.5273 12.3861C15.521 12.3104 15.5049 12.1721 15.4329 12.0552L15.4323 12.0542C15.3398 11.9051 15.1981 11.8214 15.1109 11.7737C15.0548 11.743 14.9792 11.7064 14.9054 11.6707C14.8656 11.6514 14.8262 11.6323 14.7908 11.6146C14.6649 11.5516 14.2966 11.3698 13.9309 11.1933C13.5793 11.0236 13.1913 10.8397 13.0505 10.7893L13.0442 10.787C12.9434 10.7504 12.7599 10.6836 12.5636 10.7057C12.3152 10.7336 12.1361 10.8827 12.0097 11.0748C11.8623 11.2938 11.4223 11.816 11.2698 11.9852C11.2568 11.9798 11.2408 11.9726 11.2215 11.9629L11.0352 12.3356L11.2215 11.9629C11.1703 11.9374 11.1058 11.9093 11.0292 11.8759C10.6723 11.7206 10.0547 11.4519 9.32057 10.796L9.32001 10.7955C8.65619 10.2046 8.19346 9.46855 8.041 9.20881C8.04862 9.20089 8.05713 9.19229 8.06724 9.18217C8.15941 9.09278 8.27398 8.95455 8.36601 8.84351C8.4028 8.79912 8.436 8.75907 8.46272 8.72822L8.46287 8.72835L8.471 8.71836C8.6089 8.54885 8.67417 8.41374 8.74008 8.27729C8.74793 8.26105 8.75578 8.24478 8.76377 8.22844C8.93837 7.89138 8.82887 7.58989 8.7457 7.42233C8.74588 7.42271 8.74575 7.42243 8.74526 7.42136C8.7443 7.41926 8.74193 7.41407 8.73781 7.40465C8.73197 7.39131 8.72439 7.37358 8.71505 7.35135C8.69639 7.30697 8.67231 7.24856 8.64385 7.17894C8.60671 7.08806 8.56309 6.98052 8.51557 6.86336C8.49017 6.80076 8.46367 6.7354 8.43644 6.66838C8.28194 6.28808 8.10317 5.85131 7.9887 5.59817L7.98868 5.59813C7.87581 5.34859 7.73327 5.15847 7.53785 5.04388C7.34669 4.93181 7.15952 4.92751 7.06621 4.92537C6.92685 4.91837 6.77027 4.91849 6.62826 4.91859C6.61099 4.91861 6.59393 4.91862 6.57715 4.91862C6.31587 4.91862 5.92896 5.01343 5.60799 5.36251L5.60798 5.3625L5.60542 5.36534C5.59039 5.38199 5.573 5.40069 5.55363 5.42152C5.28455 5.71093 4.63379 6.41084 4.63379 7.71159C4.63379 8.4135 4.88652 9.08064 5.13677 9.57453C5.38641 10.0672 5.65176 10.4226 5.72551 10.5193C5.72638 10.5205 5.72839 10.5234 5.73192 10.5285L5.75438 10.5616C5.75784 10.5668 5.76155 10.5723 5.76548 10.5781C5.78268 10.6037 5.80427 10.6357 5.8294 10.6726C5.89155 10.7639 5.97648 10.8863 6.08294 11.0316C6.29564 11.3219 6.59454 11.7038 6.97136 12.1129C7.72081 12.9265 8.79843 13.8696 10.1403 14.3981L10.1403 14.3981C11.1983 14.8146 11.8632 14.9931 12.3366 15.0562C12.737 15.1097 13.0013 15.0778 13.193 15.0547C13.233 15.0499 13.2699 15.0455 13.3041 15.0423ZM13.3041 15.0423C13.3036 15.0423 13.303 15.0424 13.3025 15.0424L13.2666 14.6273L13.3051 15.0422C13.3048 15.0422 13.3045 15.0422 13.3041 15.0423ZM1.82762 15.2355L1.87467 15.0638L1.78321 14.9112C0.921079 13.4722 0.416667 11.7967 0.416667 10C0.416667 4.70762 4.70762 0.416667 10 0.416667C15.2924 0.416667 19.5833 4.70762 19.5833 10C19.5833 15.2924 15.2924 19.5833 10 19.5833C8.28064 19.5833 6.67032 19.1245 5.27429 18.3308L5.12674 18.2469L4.96257 18.29L0.6823 19.4136L1.82762 15.2355Z" fill="#343434" stroke="#343434" stroke-width="0.833333"/>
</svg>
