<svg width="20" height="17" viewBox="0 0 20 17" fill="none" xmlns="http://www.w3.org/2000/svg">
<path d="M19.9608 1.93632C19.2121 2.26599 18.4188 2.4836 17.6067 2.58215C18.4618 2.06819 19.102 1.26219 19.4092 0.312982C18.6167 0.775482 17.7383 1.11215 16.8033 1.29965C16.1865 0.640007 15.3691 0.2025 14.478 0.0550665C13.587 -0.0923667 12.6722 0.058524 11.8758 0.484308C11.0793 0.910091 10.4457 1.58694 10.0734 2.40975C9.70104 3.23256 9.6108 4.15529 9.81667 5.03465C6.40833 4.87382 3.38917 3.23632 1.36667 0.762982C0.998995 1.38783 0.80722 2.1005 0.811667 2.82548C0.811667 4.25048 1.53667 5.50298 2.635 6.23882C1.98405 6.21809 1.34748 6.04209 0.778333 5.72548V5.77548C0.777964 6.72247 1.10522 7.64043 1.70459 8.37361C2.30395 9.10679 3.13851 9.61004 4.06667 9.79798C3.46525 9.95913 2.83534 9.98334 2.22333 9.86881C2.48677 10.6838 2.99805 11.3963 3.68585 11.9067C4.37364 12.4172 5.20363 12.7002 6.06 12.7163C4.60961 13.8546 2.81873 14.4724 0.975 14.4705C0.65 14.4705 0.325833 14.4513 0 14.4146C1.87976 15.6183 4.06543 16.2572 6.2975 16.2555C13.8417 16.2555 17.9625 10.0088 17.9625 4.60132C17.9625 4.42632 17.9625 4.25132 17.95 4.07632C18.755 3.49703 19.4494 2.77783 20 1.95298L19.9608 1.93632Z" fill="#343434"/>
</svg>
